<?xml version="1.0" standalone="no"?>
<svg viewBox="0 0 200 200" xmlns="http://www.w3.org/2000/svg">
  <path fill="#FF0066" d="M37.5,-64.1C51.7,-56.8,68.5,-53,79.3,-42.9C90,-32.8,94.8,-16.4,94.7,-0.1C94.6,16.3,89.7,32.6,78.3,41.7C67,50.9,49.3,52.8,35.2,58.1C21.1,63.3,10.5,71.9,-0.8,73.3C-12.1,74.6,-24.2,68.7,-34.4,61.2C-44.7,53.7,-53.1,44.6,-57.9,34.2C-62.8,23.7,-64,11.8,-68,-2.3C-72,-16.5,-78.8,-33,-73.5,-42.5C-68.1,-51.9,-50.5,-54.4,-36.2,-61.7C-21.9,-68.9,-10.9,-81,0.4,-81.6C11.6,-82.2,23.3,-71.4,37.5,-64.1Z" transform="translate(100 100)" />
</svg>
